<svg width="13" height="13" viewBox="0 0 13 13" fill="none" xmlns="http://www.w3.org/2000/svg">
<path fill-rule="evenodd" clip-rule="evenodd" d="M1.3 8.45L1.3 1.95C1.3 1.59101 1.59102 1.3 1.95 1.3L8.45 1.3C8.80898 1.3 9.1 1.59102 9.1 1.95V2.6H10.4V1.95C10.4 0.873044 9.52695 0 8.45 0H1.95C0.873044 0 0 0.873046 0 1.95V8.45C0 9.52695 0.873046 10.4 1.95 10.4H2.6V9.1H1.95C1.59102 9.1 1.3 8.80898 1.3 8.45Z" fill="#1C1C23" fill-opacity="0.6"/>
<path fill-rule="evenodd" clip-rule="evenodd" d="M4.5501 2.6001C3.47314 2.6001 2.6001 3.47314 2.6001 4.5501V11.0501C2.6001 12.1271 3.47314 13.0001 4.5501 13.0001H11.0501C12.1271 13.0001 13.0001 12.1271 13.0001 11.0501V4.5501C13.0001 3.47314 12.1271 2.6001 11.0501 2.6001H4.5501ZM7.79992 10.4001C7.51273 10.4001 7.27992 10.1673 7.27992 9.8801V8.32008H5.71995C5.43276 8.32008 5.19995 8.08727 5.19995 7.80008C5.19995 7.5129 5.43276 7.28008 5.71995 7.28008H7.27992V5.7201C7.27992 5.43291 7.51273 5.2001 7.79992 5.2001C8.08711 5.2001 8.31992 5.43291 8.31992 5.7201V7.28008H9.87995C10.1671 7.28008 10.4 7.5129 10.4 7.80008C10.4 8.08727 10.1671 8.32008 9.87995 8.32008H8.31992V9.8801C8.31992 10.1673 8.08711 10.4001 7.79992 10.4001Z" fill="#1C1C23" fill-opacity="0.6"/>
</svg>