<svg width="30" height="30" viewBox="0 0 30 30" fill="none" xmlns="http://www.w3.org/2000/svg">
<path d="M14.9906 28.575L20.5125 11.58H9.46875L14.9906 28.575Z" fill="#E24329"/>
<path d="M14.9908 28.575L9.46794 11.58H1.73169L14.9908 28.575Z" fill="#FC6D26"/>
<path d="M1.73143 11.58L0.0561196 16.7475C-0.0957554 17.2144 0.0664321 17.7319 0.47237 18.0272L14.9905 28.575L1.73143 11.58Z" fill="#FCA326"/>
<path d="M1.73169 11.5801H9.46794L6.14825 1.34632C6.11113 1.23143 6.03855 1.13128 5.94094 1.06023C5.84332 0.989191 5.7257 0.95092 5.60497 0.95092C5.48424 0.95092 5.36662 0.989191 5.26901 1.06023C5.17139 1.13128 5.09881 1.23143 5.06169 1.34632L1.73169 11.5801Z" fill="#E24329"/>
<path d="M14.9907 28.575L20.5126 11.58H28.2498L14.9907 28.575Z" fill="#FC6D26"/>
<path d="M28.2498 11.58L29.9242 16.7475C30.077 17.2144 29.9148 17.7319 29.5079 18.0272L14.9907 28.575L28.2498 11.58Z" fill="#FCA326"/>
<path d="M28.2496 11.5801H20.5125L23.8425 1.34632C23.8796 1.23143 23.9522 1.13128 24.0498 1.06023C24.1474 0.989191 24.265 0.95092 24.3857 0.95092C24.5065 0.95092 24.6241 0.989191 24.7217 1.06023C24.8193 1.13128 24.8919 1.23143 24.929 1.34632L28.2478 11.5801H28.2496Z" fill="#E24329"/>
</svg>
