<svg width="14" height="14" viewBox="0 0 14 14" fill="none" xmlns="http://www.w3.org/2000/svg">
<path d="M4.66652 8.75H11.6665V2.338C11.6665 2.16883 11.7873 1.75 12.2522 1.75C12.5042 1.75 11.7873 1.75 12.2522 1.75C12.7171 1.75 12.8332 2.17817 12.8332 2.338V9.33333C12.8332 9.5025 12.699 9.91667 12.2499 9.91667H4.66652V11.6276C4.6665 11.683 4.65069 11.7373 4.62094 11.784C4.59119 11.8308 4.54874 11.8681 4.49855 11.8916C4.44836 11.9151 4.39251 11.9238 4.33754 11.9167C4.28258 11.9097 4.23077 11.8871 4.18819 11.8516L1.43544 9.55733C1.40261 9.52996 1.3762 9.49571 1.35808 9.457C1.33996 9.41829 1.33057 9.37607 1.33057 9.33333C1.33057 9.29059 1.33996 9.24838 1.35808 9.20967C1.3762 9.17096 1.40261 9.13671 1.43544 9.10933L4.18877 6.81508C4.23139 6.77958 4.28325 6.75697 4.33827 6.7499C4.39329 6.74284 4.44918 6.7516 4.49939 6.77518C4.54961 6.79875 4.59205 6.83616 4.62176 6.883C4.65146 6.92985 4.66719 6.9842 4.6671 7.03967V8.75H4.66652Z" fill="#2B2F36"/>
</svg>
