<svg width="14" height="14" viewBox="0 0 14 14" fill="none" xmlns="http://www.w3.org/2000/svg">
<path fill-rule="evenodd" clip-rule="evenodd" d="M6.00004 0.333344C2.87043 0.333344 0.333374 2.8704 0.333374 6.00001C0.333374 9.12962 2.87043 11.6667 6.00004 11.6667C7.20366 11.6667 8.31963 11.2914 9.23735 10.6515L11.9596 13.3738C12.3501 13.7643 12.9833 13.7643 13.3738 13.3738C13.7643 12.9832 13.7643 12.3501 13.3738 11.9596L10.6516 9.23731C11.2915 8.3196 11.6667 7.20363 11.6667 6.00001C11.6667 2.8704 9.12965 0.333344 6.00004 0.333344ZM2.33337 6.00001C2.33337 3.97497 3.975 2.33334 6.00004 2.33334C8.02508 2.33334 9.66671 3.97497 9.66671 6.00001C9.66671 8.02505 8.02508 9.66668 6.00004 9.66668C3.975 9.66668 2.33337 8.02505 2.33337 6.00001Z" fill="#1C1C23" fill-opacity="0.6"/>
</svg>
