<svg width="16" height="16" viewBox="0 0 16 16" fill="none" xmlns="http://www.w3.org/2000/svg">
<path d="M4.66667 2.66659C4.66667 1.93021 5.26362 1.33325 6 1.33325H13.3333C14.0697 1.33325 14.6667 1.93021 14.6667 2.66659V9.99992C14.6667 10.7363 14.0697 11.3333 13.3333 11.3333H12.6667V5.33325C12.6667 3.99992 12 3.33325 10.6667 3.33325H4.66667V2.66659Z" fill="#3250EB"/>
<path d="M3.33333 4.66659C2.59695 4.66659 2 5.26354 2 5.99992V12.6666C2 13.403 2.59695 13.9999 3.33333 13.9999H10C10.7364 13.9999 11.3333 13.403 11.3333 12.6666V5.99992C11.3333 5.26354 10.7364 4.66659 10 4.66659H3.33333Z" fill="#3250EB"/>
</svg>
