<svg width="12" height="12" viewBox="0 0 12 12" fill="none" xmlns="http://www.w3.org/2000/svg">
<path fill-rule="evenodd" clip-rule="evenodd" d="M6 12C9.31371 12 12 9.31371 12 6C12 2.68629 9.31371 0 6 0C2.68629 0 0 2.68629 0 6C0 9.31371 2.68629 12 6 12ZM7.09091 3.27273C7.09091 3.87522 6.60249 4.36364 6 4.36364C5.39751 4.36364 4.90909 3.87522 4.90909 3.27273C4.90909 2.67023 5.39751 2.18182 6 2.18182C6.60249 2.18182 7.09091 2.67023 7.09091 3.27273ZM4.36364 5.31818C4.36364 5.09225 4.54679 4.90909 4.77273 4.90909H6.27273C6.57397 4.90909 6.81818 5.1533 6.81818 5.45455V8.45455H7.22727C7.45321 8.45455 7.63636 8.6377 7.63636 8.86364C7.63636 9.08957 7.45321 9.27273 7.22727 9.27273H4.77273C4.54679 9.27273 4.36364 9.08957 4.36364 8.86364C4.36364 8.6377 4.54679 8.45455 4.77273 8.45455H5.18182V5.72727H4.77273C4.54679 5.72727 4.36364 5.54412 4.36364 5.31818Z" fill="#1C1C23" fill-opacity="0.4"/>
</svg>
