<svg width="18" height="18" viewBox="0 0 18 18" fill="none" xmlns="http://www.w3.org/2000/svg">
<path d="M18 0H0V18H18V0Z" fill="white" fill-opacity="0.01"/>
<path d="M9 16.5C13.1421 16.5 16.5 13.1421 16.5 9C16.5 4.85786 13.1421 1.5 9 1.5C4.85786 1.5 1.5 4.85786 1.5 9C1.5 13.1421 4.85786 16.5 9 16.5Z" stroke="white" stroke-width="1.5" stroke-linecap="round" stroke-linejoin="round"/>
<path d="M12.5783 5.625V7.875C12.1004 6.35359 10.6791 5.25 8.99996 5.25C7.32086 5.25 5.89949 6.35359 5.42163 7.875M12.5783 10.125C12.1004 11.6464 10.6791 12.75 8.99996 12.75C7.32086 12.75 5.89949 11.6464 5.42163 10.125V12.375" stroke="white" stroke-width="1.5" stroke-linecap="round" stroke-linejoin="round"/>
</svg>
