<svg width="16" height="16" viewBox="0 0 16 16" fill="none" xmlns="http://www.w3.org/2000/svg">
<path d="M16 0H0V16H16V0Z" fill="white" fill-opacity="0.01"/>
<path d="M7.99998 14.6667C9.84091 14.6667 11.5076 13.9205 12.714 12.7141C13.9204 11.5076 14.6666 9.84097 14.6666 8.00004C14.6666 6.15911 13.9204 4.49244 12.714 3.28599C11.5076 2.07957 9.84091 1.33337 7.99998 1.33337C6.15905 1.33337 4.49238 2.07957 3.28593 3.28599C2.07951 4.49244 1.33331 6.15911 1.33331 8.00004C1.33331 9.84097 2.07951 11.5076 3.28593 12.7141C4.49238 13.9205 6.15905 14.6667 7.99998 14.6667Z" stroke="white" stroke-width="1.5" stroke-linejoin="round"/>
<path fill-rule="evenodd" clip-rule="evenodd" d="M8.00002 12.3333C8.46025 12.3333 8.83335 11.9602 8.83335 11.5C8.83335 11.0397 8.46025 10.6666 8.00002 10.6666C7.53979 10.6666 7.16669 11.0397 7.16669 11.5C7.16669 11.9602 7.53979 12.3333 8.00002 12.3333Z" fill="white"/>
<path d="M8 4V9.33333" stroke="white" stroke-width="1.5" stroke-linecap="round" stroke-linejoin="round"/>
</svg>
