<svg width="120" height="120" viewBox="0 0 120 120" fill="none" xmlns="http://www.w3.org/2000/svg">
<path d="M76.5433 70.0799L76.3278 69.9813L61.8586 81.0319C60.6698 81.9398 59.0738 82.1086 57.7214 81.4694L7.71928 57.8362C6.35834 57.1929 6.16901 55.3335 7.37237 54.4291L21.0598 44.1427L42.1411 7.61203C43.182 5.80839 45.4326 5.10507 47.3152 5.99509L98.6777 30.2767C99.0328 30.4446 99.3612 30.6639 99.6524 30.9274L114.429 44.3028C115.826 45.5672 116.151 47.6351 115.21 49.2671L111.833 55.1199L93.8021 86.3448L90.9569 102.28C90.6809 103.826 88.8126 104.465 87.6474 103.412L74.3167 91.3704C73.2724 90.427 72.8007 89.0043 73.0745 87.624L76.5523 70.0886L76.5433 70.0799Z" fill="#BBBFC4" fill-opacity="0.45"/>
<path d="M99.1119 30.5559C98.8723 30.4186 98.5668 30.5015 98.4295 30.7411L76.3295 69.3011C76.1922 69.5407 76.2751 69.8462 76.5146 69.9835C76.7542 70.1208 77.0598 70.0379 77.1971 69.7983L99.2971 31.2383C99.4344 30.9988 99.3515 30.6932 99.1119 30.5559Z" fill="#8F959E"/>
<path d="M22.6496 44.6094C22.7658 44.3589 23.0631 44.25 23.3136 44.3663L74.1836 67.9663C74.4341 68.0825 74.5429 68.3797 74.4267 68.6302C74.3105 68.8807 74.0132 68.9896 73.7627 68.8734L22.8927 45.2734C22.6422 45.1572 22.5334 44.8599 22.6496 44.6094Z" fill="#8F959E"/>
<path d="M78.5897 70.716C78.785 70.5208 79.1016 70.5209 79.2968 70.7163L92.9268 84.3563C93.122 84.5516 93.1219 84.8682 92.9265 85.0634C92.7312 85.2586 92.4146 85.2585 92.2194 85.0631L78.5894 71.4231C78.3942 71.2278 78.3944 70.9112 78.5897 70.716Z" fill="#8F959E"/>
<path d="M11.7974 85.0761C11.8934 85.341 12.179 85.4861 12.4354 85.4001L26.4258 80.7056C26.6822 80.6196 26.8121 80.3351 26.7162 80.0702C26.6202 79.8052 26.3345 79.6602 26.0782 79.7462L12.0877 84.4407C11.8314 84.5267 11.7014 84.8112 11.7974 85.0761Z" fill="#0C296E"/>
<path d="M28.6574 93.1368C28.8971 93.2821 29.1986 93.2071 29.3308 92.9694L32.9053 86.5439C33.0375 86.3062 32.9504 85.9958 32.7107 85.8506C32.4711 85.7053 32.1696 85.7803 32.0374 86.018L28.4629 92.4435C28.3307 92.6812 28.4178 92.9916 28.6574 93.1368Z" fill="#0C296E"/>
<path d="M40.3503 98.3548C40.6154 98.4364 40.8857 98.2866 40.9542 98.0203L42.7073 91.2043C42.7758 90.938 42.6165 90.6559 42.3515 90.5743C42.0865 90.4927 41.8161 90.6425 41.7476 90.9088L39.9945 97.7248C39.926 97.9911 40.0853 98.2732 40.3503 98.3548Z" fill="#0C296E"/>
<path d="M21.5448 15.2373C21.3079 15.9704 20.0302 20.08 18.8953 26.2244C21.0675 16.8438 30.7365 16.2003 37.7517 15.2665L41.6569 8.44659C28.5412 6.83355 22.7002 12.7546 21.5448 15.2373Z" fill="#0C296E"/>
<path d="M20.4228 22.535C20.5511 23.0543 20.7121 23.5668 20.9051 24.073C21.9952 26.9322 24.0751 29.5088 26.8746 31.9808C32.0066 36.5124 39.8122 40.9011 49.126 46.1379C49.5812 46.3938 50.0401 46.6518 50.5024 46.912L46.7368 51.6061C36.3024 45.6414 28.8357 41.0764 24.2909 36.9183C21.9743 34.7988 20.486 32.8449 19.7337 30.9353C18.9934 29.0565 18.94 27.1572 19.6108 25.0661L20.4228 22.535ZM18.6586 24.7606C15.7103 33.9508 25.385 40.5793 46.9825 52.8979L52.0197 46.6187C51.7239 46.452 51.4295 46.2862 51.1367 46.1214C50.6383 45.8409 50.1444 45.5631 49.6549 45.2879C33.2143 36.0428 21.8617 29.6588 21.0909 20.4525C20.9476 18.7412 21.1699 16.9324 21.7932 14.9895L18.6586 24.7606Z" fill="#0C296E"/>
<path d="M114.729 86.0665C114.289 83.8931 107.517 74.6118 101.774 72.5762L104.911 67.1211C110.581 69.772 114.704 74.3925 114.711 77.1715C114.717 80.033 114.775 83.5659 114.729 86.0665Z" fill="#0C296E"/>
<path d="M83.1615 91.9661L83.1455 85.185C89.2327 86.0047 94.7371 86.9848 102.994 86.4298C111.337 85.869 114.719 81.8939 114.71 77.866L114.73 86.3947C114.301 88.9004 110.399 92.9473 103.445 93.2265C96.4911 93.5057 90.0874 93.0813 83.1615 91.9661Z" fill="#00D6B9"/>
<path d="M66.1627 105.195C62.0108 103.955 59.0924 102.773 57.0718 101.783L56.9336 94.7083C59.8869 96.5142 63.3677 97.5409 66.8071 98.4528C70.3133 99.3826 75.333 100.664 80.5725 101.913L80.5886 108.73C75.3307 107.597 70.0171 106.348 66.1627 105.195Z" fill="#3370FF"/>
<path d="M84.7011 109.547L84.6851 102.766C90.7722 103.586 96.2766 104.566 104.534 104.011C112.876 103.45 116.259 99.475 116.249 95.447L116.27 103.976C115.841 106.481 111.938 110.528 104.985 110.808C98.0307 111.087 91.6269 110.662 84.7011 109.547Z" fill="#3370FF"/>
</svg>
